<svg width="16" height="12" viewBox="0 0 16 12" fill="none" xmlns="http://www.w3.org/2000/svg">
<path d="M15.3334 6.00008C15.3334 6.00008 15.3334 3.43341 15.0267 2.28008C14.86 1.64675 14.36 1.14675 13.7334 0.973415C12.5867 0.666748 8.00002 0.666748 8.00002 0.666748C8.00002 0.666748 3.41335 0.666748 2.26669 0.973415C1.63335 1.14008 1.14002 1.64675 0.973354 2.28008C0.666687 3.43341 0.666687 6.00008 0.666687 6.00008C0.666687 6.00008 0.693354 8.56675 1.00002 9.72008C1.16669 10.3534 1.66669 10.8534 2.30002 11.0267C3.44002 11.3334 8.02669 11.3334 8.02669 11.3334C8.02669 11.3334 12.6134 11.3334 13.76 11.0267C14.3934 10.8601 14.8867 10.3534 15.0534 9.72008C15.36 8.56675 15.3334 6.00008 15.3334 6.00008ZM6.66669 8.18008V3.82008L10.3334 6.00008L6.66669 8.18008Z" fill="white"/>
</svg>
